# xmcd CD database file
# Copyright (C) 1993-1998 Ti Kan
# 
# Track frame offsets:
# 150
# 12380
# 28452
# 48240
# 64087
# 80612
# 91750
# 109187
# 126017
# 143832
# 160585
# 
# Disc length: 2431 seconds
# 
# Revision: 0
# Processed by: cddbd v1.4b41PL1 Copyright (c) Steve Scherf et al.
# Submitted via: SuperSonic v3.01
# 
DISCID=8b097d0b
DTITLE=The Judds - Classic Gold Disk 1
DYEAR=1900
DGENRE=
TTITLE0=Rockin' With The Rhythm Of The Rain
TTITLE1=Change Of Heart
TTITLE2=Young Love (Strong Love)
TTITLE3=Maybe Your Baby's Got The Blues
TTITLE4=I Know Where I'm Going
TTITLE5=Don't Be Cruel
TTITLE6=Give A Little Love
TTITLE7=Turn It Loose
TTITLE8=One Hundred And Two
TTITLE9=Cry Myself To Sleep
TTITLE10=Born To Be Blue
EXTD=
EXTT0=
EXTT1=
EXTT2=
EXTT3=
EXTT4=
EXTT5=
EXTT6=
EXTT7=
EXTT8=
EXTT9=
EXTT10=
PLAYORDER=
